<?xml version="1.0" encoding="UTF-8"?>
<svg id="Laag_1" data-name="Laag 1" xmlns="http://www.w3.org/2000/svg" viewBox="0 0 512 512">
  <defs>
    <style>
      .cls-1 {
        fill: #1d1d1b;
      }
    </style>
  </defs>
  <path class="cls-1" d="M317.17,8.45C180.67-25.28,42.18,58.33,8.45,194.83-25.28,331.33,58.33,469.82,194.83,503.55s275-49.88,308.73-186.38C537.28,180.67,453.67,42.18,317.17,8.45ZM177.83,360.09l10.86,2.68,21.39,5.28-24.61,99.58c-32.95-10.96-61.86-29.06-85.41-52.16l77.77-55.39Zm66.61,16.46l5.45,1.35c8.94,2.21,17.17,3.03,24.75,2.57l45.06,89.28c-31.59,9.48-65.61,12.03-99.87,6.38l24.61-99.58Zm43.16-51.86c-1.86,7.52-5.58,12.83-11.16,15.92-5.58,3.09-12.58,3.6-21.01,1.51l-58.09-14.35,18.43-74.59,56.15,13.87c8.56,2.11,14.67,6.75,18.33,13.92,3.66,7.17,4.17,16.13,1.51,26.89l-4.16,16.83Zm25.02-117.12c-2.4,9.72-6.4,16.72-11.99,20.97-5.59,4.26-12.28,5.43-20.06,3.5l-56.15-13.87,15.55-62.92,56.54,13.97c7.52,1.86,12.91,5.39,16.16,10.6,3.25,5.21,3.95,11.57,2.09,19.09l-2.14,8.66Zm-273.24-5.09C67.52,88.59,178.98,16.86,292.82,35.99l-22.16,89.7-22.04-5.44-13.61-3.36-23.34-5.77-54.4,220.16-80.56,57.38c-38.12-51.61-53.88-119.17-37.33-186.18Zm313.5,254.42l-45.54-90.22c7.94-7.67,13.61-18.28,16.97-31.88l4.25-17.22c3.56-14.39,2.97-26.92-1.75-37.58-4.73-10.66-13.12-18.58-25.18-23.76,11.98,.49,22.19-2.8,30.61-9.87,8.42-7.07,14.28-17.28,17.58-30.63l2.43-9.83c4.45-18.02,2.55-33.28-5.71-45.78-8.26-12.49-22.25-21.18-41.95-26.05l-.85-.21,22.16-89.7c109.65,36.1,174.87,151.49,146.73,265.37-16.56,67.01-61.97,119.44-119.74,147.36Z"/>
</svg>