<?xml version="1.0" encoding="UTF-8"?>
<svg id="Laag_1" data-name="Laag 1" xmlns="http://www.w3.org/2000/svg" viewBox="0 0 512 512">
  <defs>
    <style>
      .cls-1 {
        fill: #fff;
      }
    </style>
  </defs>
  <path class="cls-1" d="M256,1C115.39,1,1,115.39,1,256s114.39,255,255,255,255-114.39,255-255S396.61,1,256,1Zm-50.92,374.8h33.22v102.57c-34.62-2.73-67.03-13.37-95.43-30.15l62.21-72.42Zm68.62,0h5.61c9.21,0,17.4-1.18,24.65-3.44l65.16,75.86c-28.4,16.78-60.81,27.42-95.43,30.15v-102.57Zm29.45-60.7c0,7.75-2.34,13.79-7.01,18.13-4.68,4.34-11.35,6.51-20.03,6.51h-59.84v-76.83h57.84c8.82,0,15.86,3.04,21.14,9.12,5.28,6.08,7.91,14.66,7.91,25.74v17.33Zm-3.81-119.7c0,10.02-2.2,17.76-6.61,23.24-4.41,5.48-10.62,8.21-18.63,8.21h-57.84v-64.81h58.24c7.74,0,13.82,2.14,18.23,6.41,4.41,4.28,6.61,10.29,6.61,18.03v8.92ZM32.86,256c0-117.3,91-213.68,206.11-222.42V125.97h-60.76v226.78l-64.45,75.03c-49.38-40.96-80.9-102.76-80.9-171.79Zm365.38,171.79l-65.85-76.66c5.87-9.35,8.83-21.01,8.83-35.02v-17.74c0-14.82-3.57-26.84-10.72-36.06-7.15-9.22-17.2-14.89-30.15-17.03,11.75-2.4,20.87-8.04,27.34-16.93,6.48-8.88,9.72-20.2,9.72-33.96v-10.12c0-18.56-5.51-32.92-16.53-43.07-11.02-10.15-26.68-15.23-46.98-15.23h-.87V33.58c115.1,8.74,206.11,105.12,206.11,222.42,0,69.03-31.51,130.82-80.9,171.79Z"/>
</svg>